<?xml version="1.0" standalone="yes"?>
<svg xmlns="http://www.w3.org/2000/svg" width="129" height="119">
<path style="fill:#ffffff; stroke:none;" d="M0 0L0 62L13 62L13 50L39 50L39 62L26 62L26 73L39 73L39 84L51 84L51 73L90 73L90 84L103 84L103 73L129 73L129 0L67 0L67 12L55 12L55 24L41 24L41 12L28 12L28 0L0 0z"/>
<path style="fill:#e16355; stroke:none;" d="M28 0L28 12L41 12L41 24L55 24L55 12L67 12L67 0L28 0z"/>
<path style="fill:#5c9dd8; stroke:none;" d="M13 50L13 62L0 62L0 74L26 74L26 62L39 62L39 50L13 50z"/>
<path style="fill:#426767; stroke:none;" d="M26 73L26 84L39 84L39 73L26 73z"/>
<path style="fill:#e16355; stroke:none;" d="M51 73L51 96L65 96L65 85L90 85L90 73L51 73z"/>
<path style="fill:#426767; stroke:none;" d="M103 73L103 85L116 85L116 107L129 107L129 73L103 73z"/>
<path style="fill:#e16355; stroke:none;" d="M0 74L0 84C10.5685 84 13.9988 84.7659 14 96L38 96L38 108L39 108L39 84L26 84L26 74L0 74z"/>
<path style="fill:#5c9dd8; stroke:none;" d="M0 84L0 85L13 85L0 84M39 84L39 85L51 85L39 84M65 85L65 96L77 96L77 107L90 107L90 96L103 96L103 84L65 85z"/>
<path style="fill:#426767; stroke:none;" d="M0 85L0 107L13 107L14 85L0 85M39 85L39 108L77 107L77 96L51 96L51 85L39 85z"/>
<path style="fill:#f0a049; stroke:none;" d="M103 85L103 107L38 108L38 96L13 96L13 107C23.2717 107 25.9988 108.39 26 119C37.222 119 51.9888 123.469 52 109L63 109L64 119L65 119L65 109L75 109L76 118L77 118L77 108L88 109L89 119L90 119L90 108L101 109L102 119C109.706 115.735 120.844 116.486 129 118L129 107L115 107L116 85L103 85z"/>
<path style="fill:#e16355; stroke:none;" d="M115 95L116 96L115 95z"/>
<path style="fill:#ffffff; stroke:none;" d="M90 96L90 107L103 107L103 96L90 96z"/>
<path style="fill:#e16355; stroke:none;" d="M115 106L116 107L115 106z"/>
<path style="fill:#5c9dd8; stroke:none;" d="M0 107L0 108L14 108L0 107z"/>
<path style="fill:#e16355; stroke:none;" d="M14 107L14 108L25 108L14 107z"/>
<path style="fill:#426767; stroke:none;" d="M0 108L0 119L26 119L26 108L0 108z"/>
<path style="fill:#e16355; stroke:none;" d="M77 108L77 118L76 118L75 109L65 109L65 119L89 119L88 109L77 108M90 108L90 119L102 119L101 109L90 108M52 109L51 119L64 119L63 109L52 109M104 117L104 118L115 118L104 117M117 117L117 118L127 118L117 117z"/>
<path style="fill:#ffffff; stroke:none;" d="M103 118L103 119L129 119L103 118z"/>
</svg>
